HIERARCHY
ROOT Hips
{
	OFFSET -0.001795 -0.223333 0.028219
	CHANNELS 6 Xposition Yposition Zposition Zrotation Yrotation Xrotation 
	JOINT LeftUpLeg
	{
		OFFSET 0.069520 -0.091406 -0.006815
		CHANNELS 3 Zrotation Yrotation Xrotation
		JOINT LeftLeg
		{
			OFFSET 0.034277 -0.375199 -0.004496
			CHANNELS 3 Zrotation Yrotation Xrotation
			JOINT LeftFoot
			{
				OFFSET -0.013596 -0.397961 -0.043693
				CHANNELS 3 Zrotation Yrotation Xrotation
				JOINT LeftToe
				{
					OFFSET 0.026358 -0.055791 0.119288
					CHANNELS 3 Zrotation Yrotation Xrotation
					End Site
					{
						OFFSET 0.000000 0.000000 0.000000
					}
				}
			}
		}
	}
	JOINT RightUpLeg
	{
		OFFSET -0.067670 -0.090522 -0.004320
		CHANNELS 3 Zrotation Yrotation Xrotation
		JOINT RightLeg
		{
			OFFSET -0.038290 -0.382569 -0.008850
			CHANNELS 3 Zrotation Yrotation Xrotation
			JOINT RightFoot
			{
				OFFSET 0.015774 -0.398415 -0.042312
				CHANNELS 3 Zrotation Yrotation Xrotation
				JOINT RightToe
				{
					OFFSET -0.025372 -0.048144 0.123348
					CHANNELS 3 Zrotation Yrotation Xrotation
					End Site
					{
						OFFSET 0.000000 0.000000 0.000000
					}
				}
			}
		}
	}
	JOINT Spine
	{
		OFFSET -0.002533 0.108963 -0.026696
		CHANNELS 3 Zrotation Yrotation Xrotation
		JOINT Spine1
		{
			OFFSET 0.005487 0.135180 0.001092
			CHANNELS 3 Zrotation Yrotation Xrotation
			JOINT Spine2
			{
				OFFSET 0.001457 0.052922 0.025425
				CHANNELS 3 Zrotation Yrotation Xrotation
				JOINT Neck
				{
					OFFSET -0.002778 0.213870 -0.042857
					CHANNELS 3 Zrotation Yrotation Xrotation
					JOINT Head
					{
						OFFSET 0.005152 0.064970 0.051349
						CHANNELS 3 Zrotation Yrotation Xrotation
						End Site
						{
							OFFSET 0.000000 0.000000 0.000000
						}
					}
				}
				JOINT LeftShoulder
				{
					OFFSET 0.078845 0.121749 -0.034090
					CHANNELS 3 Zrotation Yrotation Xrotation
					JOINT LeftArm
					{
						OFFSET 0.090977 0.030469 -0.008868
						CHANNELS 3 Zrotation Yrotation Xrotation
						JOINT LeftForeArm
						{
							OFFSET 0.259612 -0.012772 -0.027456
							CHANNELS 3 Zrotation Yrotation Xrotation
							JOINT LeftHand
							{
								OFFSET 0.249234 0.008986 -0.001171
								CHANNELS 3 Zrotation Yrotation Xrotation
								End Site
								{
									OFFSET 0.000000 0.000000 0.000000
								}
							}
						}
					}
				}
				JOINT RightShoulder
				{
					OFFSET -0.081759 0.118833 -0.038615
					CHANNELS 3 Zrotation Yrotation Xrotation
					JOINT RightArm
					{
						OFFSET -0.096012 0.032551 -0.009143
						CHANNELS 3 Zrotation Yrotation Xrotation
						JOINT RightForeArm
						{
							OFFSET -0.253742 -0.013329 -0.021401
							CHANNELS 3 Zrotation Yrotation Xrotation
							JOINT RightHand
							{
								OFFSET -0.255298 0.007772 -0.005559
								CHANNELS 3 Zrotation Yrotation Xrotation
								End Site
								{
									OFFSET 0.000000 0.000000 0.000000
								}
							}
						}
					}
				}
			}
		}
	}
}
MOTION
Frames: 13
Frame Time: 0.050000
0.232630 0.944156 1.223827 -0.875367 -26.742766 2.167692 24.501184 3.425282 -6.114704 -0.457625 0.663479 16.880351 2.426682 8.523697 35.747956 0.000000 0.000000 0.000000 -9.228185 1.113359 -8.852155 3.892709 0.482303 13.726356 0.841474 -10.357167 19.708019 0.000000 0.000000 0.000000 4.970880 -0.777115 18.107345 -4.631622 1.510038 -31.286207 -2.454235 9.711198 31.177799 12.339772 -4.403727 -39.127937 0.000000 0.000000 0.000000 -22.103557 0.640385 0.874193 -47.260335 -14.157271 -3.604683 6.090676 -34.773338 0.893634 0.000000 0.000000 0.000000 27.348084 -6.796264 -8.955839 60.175689 5.959593 -5.533645 -1.307375 35.976731 0.998059 0.000000 0.000000 0.000000 
0.196552 0.948655 1.212384 -0.179807 -28.567136 2.635396 23.437751 4.248880 -11.315115 0.740061 1.112515 24.420676 3.425435 9.405433 35.141272 0.000000 0.000000 0.000000 -7.210877 1.072897 -9.091491 4.228976 0.440224 13.087346 -0.543296 -11.700404 17.177005 0.000000 0.000000 0.000000 4.749931 -0.671737 18.601796 -4.231625 1.566020 -32.788627 -2.128371 10.242477 31.666378 11.408538 -4.070555 -39.345964 0.000000 0.000000 0.000000 -22.874900 2.220637 0.154479 -47.463829 -11.332987 -4.778020 3.736828 -37.452345 1.909732 0.000000 0.000000 0.000000 24.976120 -5.335156 -7.619403 60.469372 7.792544 -4.771685 -0.193343 37.295694 1.307533 0.000000 0.000000 0.000000 
0.166824 0.952782 1.204883 0.804479 -31.262419 2.097487 19.728441 4.451246 -16.529984 1.885836 1.977286 31.705352 2.873380 7.741028 28.288453 0.000000 0.000000 0.000000 -5.874913 0.953812 -7.797410 2.961064 0.619773 12.420533 1.123157 -7.347680 12.950933 0.000000 0.000000 0.000000 5.280945 -0.611971 19.766497 -4.896804 1.734253 -33.484937 -1.225598 12.516815 32.769675 12.081101 -4.219091 -40.000250 0.000000 0.000000 0.000000 -22.187060 1.928956 0.216891 -48.844036 -10.057290 -5.391549 2.071602 -37.823235 2.496771 0.000000 0.000000 0.000000 24.895359 -6.007660 -7.732631 59.843869 8.323348 -4.669943 1.555606 38.943272 2.085687 0.000000 0.000000 0.000000 
0.141051 0.956397 1.201513 1.930595 -33.478894 1.713862 13.656795 3.512415 -21.111980 2.624883 2.737364 35.539255 2.439007 5.826991 17.121130 0.000000 0.000000 0.000000 -4.699245 0.805876 -6.341040 2.084769 0.634346 10.996943 0.802825 -6.439366 10.217195 0.000000 0.000000 0.000000 5.077801 -0.436430 20.586600 -5.470650 1.912005 -34.257330 0.189098 13.243805 33.638519 12.339189 -4.713978 -38.686861 0.000000 0.000000 0.000000 -20.933920 1.674050 0.546112 -51.311555 -8.549792 -6.134287 1.159157 -37.565584 2.911720 0.000000 0.000000 0.000000 23.960539 -5.996531 -7.661851 60.145741 9.088670 -4.418132 0.638994 39.446199 1.744510 0.000000 0.000000 0.000000 
0.117218 0.958473 1.201802 2.709555 -35.924481 1.081829 8.685850 2.697661 -24.793293 2.398688 3.212463 35.352619 2.147344 4.816148 13.152795 0.000000 0.000000 0.000000 -3.381681 0.644565 -5.113666 0.540716 0.803755 10.563828 1.395780 -4.513920 8.710256 0.000000 0.000000 0.000000 5.166474 -0.240375 21.882816 -4.822663 1.905613 -34.844507 0.434320 14.206853 34.228687 12.172100 -4.736979 -38.650692 0.000000 0.000000 0.000000 -20.461003 2.241592 0.371857 -52.528505 -8.170122 -6.396901 -0.492729 -36.409616 3.405076 0.000000 0.000000 0.000000 23.488977 -5.649736 -7.490509 59.997211 9.710602 -4.156624 -0.233796 38.328539 1.341824 0.000000 0.000000 0.000000 
0.093715 0.958220 1.205786 2.732530 -39.468654 1.147862 4.587130 2.086503 -27.273463 1.079783 3.237915 30.408728 2.730685 5.148273 11.691277 0.000000 0.000000 0.000000 -1.940235 0.426536 -3.293929 -0.580529 0.859216 9.661094 1.799064 -1.170333 5.434897 0.000000 0.000000 0.000000 4.383167 0.165160 22.810235 -3.369253 1.743010 -34.997358 1.708739 15.991881 34.545944 11.808934 -4.785319 -37.843200 0.000000 0.000000 0.000000 -19.941100 2.603131 0.280739 -53.915153 -7.173327 -6.874702 -0.142552 -35.907858 3.329263 0.000000 0.000000 0.000000 23.411541 -6.152689 -7.925095 60.075721 9.760071 -4.119825 -1.981919 38.586203 0.703600 0.000000 0.000000 0.000000 
0.069952 0.956251 1.212908 2.187279 -42.965290 1.165967 1.557940 1.682285 -28.783952 -2.406252 3.266519 22.310624 2.577124 4.375912 14.358009 0.000000 0.000000 0.000000 -0.000597 0.175340 -1.836689 -2.174368 1.035402 9.468546 2.393852 1.016046 4.314294 0.000000 0.000000 0.000000 4.070804 0.551150 23.917625 -1.418994 1.485309 -34.712127 1.975375 17.305251 34.269617 11.083115 -4.751751 -36.591266 0.000000 0.000000 0.000000 -20.370252 3.503247 -0.026829 -54.457974 -6.196178 -7.349568 -0.704667 -34.679550 3.422112 0.000000 0.000000 0.000000 23.298990 -5.764757 -7.931677 59.784495 9.714341 -4.054176 -2.791967 37.975401 0.304508 0.000000 0.000000 0.000000 
0.044605 0.953245 1.223712 2.260441 -46.868193 1.228402 0.058764 1.735358 -29.576875 -7.057051 3.312294 12.650528 1.889101 3.088821 22.542553 0.000000 0.000000 0.000000 0.488110 0.058500 -0.209770 -2.243005 1.045424 9.384227 1.960677 2.863612 1.861141 0.000000 0.000000 0.000000 3.111125 1.000578 24.135577 0.434993 1.176644 -34.134572 1.934734 18.595480 34.641982 11.318484 -5.182030 -35.960222 0.000000 0.000000 0.000000 -21.166817 3.990571 0.080328 -54.219643 -7.209370 -7.062320 0.295103 -32.700916 2.970369 0.000000 0.000000 0.000000 23.847869 -5.645113 -8.438467 59.754961 9.918962 -3.887789 -3.857978 37.866808 -0.189906 0.000000 0.000000 0.000000 
0.015836 0.948760 1.237980 2.369337 -50.128768 1.278143 -1.687422 1.490043 -29.525161 -8.223164 2.923536 7.395481 1.034664 2.058658 28.555478 0.000000 0.000000 0.000000 1.296462 -0.037576 0.570106 -2.535808 1.478410 11.684309 0.289187 2.759328 -0.884247 0.000000 0.000000 0.000000 2.447916 1.518990 24.983039 0.939421 1.343327 -34.776286 1.503260 18.494878 34.743600 12.403736 -6.364360 -34.095593 0.000000 0.000000 0.000000 -20.390217 4.053426 0.514989 -55.077935 -7.691550 -6.840203 1.766235 -31.218961 2.511546 0.000000 0.000000 0.000000 23.717393 -5.661572 -9.119914 60.834969 7.989622 -4.908240 -1.690937 38.088075 0.268340 0.000000 0.000000 0.000000 
-0.018843 0.941252 1.255519 3.310229 -53.568960 -0.594985 -2.927225 0.937300 -27.120555 -7.090265 2.580694 6.559450 2.643454 3.201280 28.831371 0.000000 0.000000 0.000000 0.862995 0.049455 4.231413 -1.678723 1.504362 12.346364 -1.839455 2.251067 -3.979440 0.000000 0.000000 0.000000 1.227560 2.118532 25.306962 1.615122 1.027261 -33.648735 0.213069 19.804297 34.104549 12.268926 -6.623210 -33.141011 0.000000 0.000000 0.000000 -18.692178 4.229322 0.417661 -56.325202 -8.988882 -6.115964 4.429746 -28.294587 1.629273 0.000000 0.000000 0.000000 25.836716 -4.425357 -9.373835 61.290294 5.969746 -5.766698 -2.599378 37.261997 -0.062979 0.000000 0.000000 0.000000 
-0.060657 0.932239 1.274801 3.369272 -56.199733 -0.948703 -4.111941 0.636868 -26.105590 -4.166291 2.195226 9.458800 4.798446 5.132905 25.512707 0.000000 0.000000 0.000000 1.362466 0.106813 6.304793 -1.207174 2.010335 15.140969 -3.782818 1.151531 -6.280534 0.000000 0.000000 0.000000 -0.453762 2.266288 23.453268 1.926794 0.890490 -32.931079 -0.116450 19.632944 34.495754 12.937061 -7.376805 -32.839552 0.000000 0.000000 0.000000 -18.131493 3.522162 1.314307 -55.500283 -9.539727 -5.832131 7.403426 -26.162904 0.923057 0.000000 0.000000 0.000000 26.711482 -4.100586 -10.511465 62.060531 3.165724 -7.066436 -2.141386 37.113659 -0.222008 0.000000 0.000000 0.000000 
-0.107699 0.928379 1.293786 2.744217 -57.099092 -1.328160 -4.608536 0.329493 -24.817227 -0.818034 2.094564 14.587583 5.739284 6.647278 19.595338 0.000000 0.000000 0.000000 2.912521 -0.113602 5.898347 -0.834262 4.147483 23.545059 -3.765115 -1.011477 -4.717341 0.000000 0.000000 0.000000 -1.752772 2.216191 21.641969 2.535561 0.576670 -31.717094 -1.421298 19.329135 34.942417 12.694867 -7.422630 -33.634727 0.000000 0.000000 0.000000 -17.852260 2.637136 2.080115 -53.728998 -11.267932 -5.167751 10.922931 -24.361041 0.244497 0.000000 0.000000 0.000000 28.473556 -3.607234 -11.506314 60.916191 0.682947 -7.894762 -1.255050 34.933663 -0.051843 0.000000 0.000000 0.000000 
-0.155417 0.929798 1.311212 2.143884 -57.696449 -1.476173 -4.499634 0.117202 -23.052011 1.591557 2.250234 18.629939 5.957858 7.555020 15.834296 0.000000 0.000000 0.000000 3.006380 -0.169510 2.798832 3.260842 6.853466 34.458785 -0.806790 -3.367331 2.597406 0.000000 0.000000 0.000000 -3.420440 2.428183 20.621814 2.444135 0.390277 -30.930683 -1.602454 18.794834 33.745749 12.911071 -7.776212 -32.312512 0.000000 0.000000 0.000000 -17.320676 1.244779 2.904069 -52.029113 -12.004822 -4.757539 12.640330 -23.724270 -0.072805 0.000000 0.000000 0.000000 27.211632 -4.951513 -12.135607 62.128092 -3.174844 -10.241587 2.086018 34.184908 0.798838 0.000000 0.000000 0.000000 
